<svg width="72" height="73" viewBox="0 0 72 73" fill="none" xmlns="http://www.w3.org/2000/svg">
<path d="M52.8387 49.7092H58.6452C59.8457 49.7092 60.8778 50.4408 61.3194 51.4818C61.5698 52.0723 62.0683 52.6125 62.7097 52.6125C63.3511 52.6125 63.8843 52.0859 63.743 51.4603C63.2168 49.1315 61.1306 47.3867 58.6452 47.3867H58.0645C57.4232 47.3867 56.9032 46.8667 56.9032 46.2254C56.9032 45.584 56.3833 45.0641 55.7419 45.0641C55.1006 45.0641 54.5807 45.584 54.5807 46.2254C54.5807 46.8667 54.0607 47.3867 53.4194 47.3867H52.8387C49.9576 47.3867 47.6129 49.7313 47.6129 52.6125C47.6129 55.4936 49.9576 57.8383 52.8387 57.8383H58.6452C60.2466 57.8383 61.5484 59.1401 61.5484 60.7415C61.5484 62.3429 60.2466 63.6447 58.6452 63.6447H52.8387C51.6382 63.6447 50.6061 62.9131 50.1645 61.8722C49.9141 61.2817 49.4156 60.7415 48.7742 60.7415C48.1328 60.7415 47.5996 61.2681 47.7409 61.8937C48.2671 64.2225 50.3533 65.9673 52.8387 65.9673H53.4194C54.0607 65.9673 54.5807 66.4872 54.5807 67.1286C54.5807 67.77 55.1006 68.2899 55.7419 68.2899C56.3833 68.2899 56.9032 67.77 56.9032 67.1286C56.9032 66.4872 57.4232 65.9673 58.0645 65.9673H58.6452C61.5263 65.9673 63.871 63.6227 63.871 60.7415C63.871 57.8603 61.5263 55.5157 58.6452 55.5157H52.8387C51.2373 55.5157 49.9355 54.2139 49.9355 52.6125C49.9355 51.0111 51.2373 49.7092 52.8387 49.7092Z" fill="#11AD8E"/>
<path d="M72 36.9351C72 17.084 55.8511 0.935059 36 0.935059C16.1489 0.935059 0 17.084 0 36.9351C0 38.7945 0.150686 40.655 0.434812 42.4881C0.455419 42.621 0.35292 42.7415 0.218382 42.7415C0.0977729 42.7415 0 42.8393 0 42.9599V49.7093C0 50.992 1.03985 52.0318 2.32258 52.0318C3.60531 52.0318 4.64516 53.0717 4.64516 54.3544V57.8383C4.64516 58.4796 5.16509 58.9996 5.80645 58.9996C6.44781 58.9996 6.96774 59.5195 6.96774 60.1609V61.3222C6.96774 62.6049 5.92789 63.6447 4.64516 63.6447C3.36244 63.6447 2.32258 64.6846 2.32258 65.9673V68.2899C2.32258 70.8553 4.40229 72.9351 6.96774 72.9351H33.6774C35.6015 72.9351 37.1613 71.3753 37.1613 69.4512V68.2899C37.1613 67.0072 38.2011 65.9673 39.4839 65.9673H41.5984C41.7133 65.9673 41.8064 65.8742 41.8064 65.7592C41.8064 65.5482 42.0909 65.4674 42.2076 65.6432C45.1213 70.0299 50.0924 72.9351 55.7419 72.9351C64.7071 72.9351 72 65.6422 72 56.677C72 56.3352 71.9893 55.9959 71.9683 55.6593C71.6843 51.1092 71.0342 46.4001 71.6598 41.8843C71.8859 40.2524 72 38.6004 72 36.9351ZM68.6662 28.7712C69.6053 32.5288 66.4354 35.7749 62.5622 35.7749H55.7164C55.7157 35.7749 55.7152 35.7744 55.7152 35.7738C55.6605 33.4399 55.4451 31.2364 55.0986 29.1598C54.5633 25.9514 57.7237 22.285 60.7031 20.9798C63.5674 19.7251 65.8903 21.1367 67.0932 24.0231C67.7306 25.5524 68.2581 27.1383 68.6662 28.7712ZM66.6575 38.0963C68.2807 38.0963 69.5928 39.4532 69.3978 41.0646C69.1205 43.3556 66.1976 44.0267 64.232 42.8175C61.7598 41.2967 58.8518 40.4189 55.7419 40.4189C55.6659 40.4189 55.6061 40.3614 55.6113 40.2855C55.6361 39.9258 55.6569 39.5661 55.6737 39.2061C55.7026 38.5892 56.2058 38.0963 56.8234 38.0963H66.6575ZM59.169 12.5254C61.5401 14.7765 60.7677 18.5264 57.6987 19.6536C57.5232 19.7181 57.344 19.7825 57.161 19.8469C54.7874 20.6816 51.8443 18.3245 50.6446 16.1129C48.2535 11.705 52.2437 7.02834 56.2466 10.049C57.2674 10.8193 58.2431 11.6464 59.169 12.5254ZM37.1613 16.5153C37.1613 11.3414 42.8 8.66339 45.8488 12.8437C46.365 13.5515 46.8749 14.3006 47.3713 15.092C49.4049 18.3338 47.8201 22.2395 44.0118 22.6156C40.5844 22.9541 37.1613 20.172 37.1613 16.7279V16.5153ZM37.1613 35.7738V32.827C37.1613 28.6607 40.5196 25.3174 44.6641 24.8912C45.062 24.8502 45.4537 24.8067 45.8391 24.7608C49.0387 24.3795 52.1555 25.8868 52.7235 29.0585C53.3472 32.5415 50.477 35.7749 46.9386 35.7749H41.8064H37.1624C37.1618 35.7749 37.1613 35.7744 37.1613 35.7738ZM36 40.4189C36.6414 40.4189 37.1613 39.899 37.1613 39.2576C37.1613 38.6163 37.6812 38.0963 38.3226 38.0963C38.9639 38.0963 39.4839 38.6163 39.4839 39.2576V40.4189C39.4839 41.7017 38.444 42.7415 37.1613 42.7415H34.8387H33.6774H11.6129C10.3302 42.7415 9.29032 41.7017 9.29032 40.4189V39.2576C9.29032 38.6163 9.81025 38.0963 10.4516 38.0963C11.093 38.0963 11.6129 38.6163 11.6129 39.2576C11.6129 39.899 12.1328 40.4189 12.7742 40.4189C13.4156 40.4189 13.9355 39.899 13.9355 39.2576C13.9355 38.6163 14.4554 38.0963 15.0968 38.0963C15.7381 38.0963 16.2581 38.6163 16.2581 39.2576C16.2581 39.899 16.778 40.4189 17.4194 40.4189C18.0607 40.4189 18.5806 39.899 18.5806 39.2576C18.5806 38.6163 19.1006 38.0963 19.7419 38.0963C20.3833 38.0963 20.9032 38.6163 20.9032 39.2576C20.9032 39.899 21.4232 40.4189 22.0645 40.4189C22.7059 40.4189 23.2258 39.899 23.2258 39.2576C23.2258 38.6163 23.7457 38.0963 24.3871 38.0963C25.0285 38.0963 25.5484 38.6163 25.5484 39.2576C25.5484 39.899 26.0683 40.4189 26.7097 40.4189C27.351 40.4189 27.871 39.899 27.871 39.2576C27.871 38.6163 28.3909 38.0963 29.0323 38.0963C29.6736 38.0963 30.1935 38.6163 30.1935 39.2576C30.1935 39.899 30.7135 40.4189 31.3548 40.4189C31.9962 40.4189 32.5161 39.899 32.5161 39.2576C32.5161 38.6163 33.0361 38.0963 33.6774 38.0963C34.3188 38.0963 34.8387 38.6163 34.8387 39.2576C34.8387 39.899 35.3586 40.4189 36 40.4189ZM10.4516 54.3544C11.093 54.3544 11.6129 53.8345 11.6129 53.1931C11.6129 52.5518 12.1328 52.0318 12.7742 52.0318C13.4156 52.0318 13.9355 52.5518 13.9355 53.1931C13.9355 53.8345 14.4554 54.3544 15.0968 54.3544C15.7381 54.3544 16.2581 53.8345 16.2581 53.1931C16.2581 52.5518 16.778 52.0318 17.4194 52.0318C18.0607 52.0318 18.5806 52.5518 18.5806 53.1931C18.5806 53.8345 19.1006 54.3544 19.7419 54.3544C20.3833 54.3544 20.9032 53.8345 20.9032 53.1931C20.9032 52.5518 21.4232 52.0318 22.0645 52.0318C22.7059 52.0318 23.2258 52.5518 23.2258 53.1931C23.2258 53.8345 23.7457 54.3544 24.3871 54.3544C25.0285 54.3544 25.5484 53.8345 25.5484 53.1931C25.5484 52.5518 26.0683 52.0318 26.7097 52.0318C27.351 52.0318 27.871 52.5518 27.871 53.1931C27.871 53.8345 28.3909 54.3544 29.0323 54.3544C29.6736 54.3544 30.1935 53.8345 30.1935 53.1931C30.1935 52.5518 30.7135 52.0318 31.3548 52.0318C31.9962 52.0318 32.5161 52.5518 32.5161 53.1931C32.5161 53.8345 33.0361 54.3544 33.6774 54.3544C34.3188 54.3544 34.8387 53.8345 34.8387 53.1931C34.8387 52.5518 35.3586 52.0318 36 52.0318C36.6414 52.0318 37.1613 52.5518 37.1613 53.1931V54.3544C37.1613 55.6371 36.1214 56.677 34.8387 56.677H8.12903C7.48767 56.677 6.96774 56.1571 6.96774 55.5157V53.1931C6.96774 52.5518 7.48767 52.0318 8.12903 52.0318C8.7704 52.0318 9.29032 52.5518 9.29032 53.1931C9.29032 53.8345 9.81025 54.3544 10.4516 54.3544ZM25.0602 35.7738C21.5224 35.7738 18.6528 32.5413 19.2763 29.0589C19.8443 25.8869 22.962 24.3792 26.1618 24.7607C27.2706 24.893 28.431 25.0051 29.6445 25.0934C32.5186 25.3024 34.8387 27.6278 34.8387 30.5096C34.8387 33.4169 32.4818 35.7738 29.5745 35.7738H25.0602ZM34.8387 16.7278C34.8387 20.1719 31.4156 22.9542 27.9881 22.6161C24.1797 22.2404 22.5949 18.3351 24.6283 15.0931C25.1249 14.3014 25.6349 13.5519 26.1513 12.8438C29.2 8.66343 34.8387 11.3414 34.8387 16.5153V16.7278ZM15.7541 10.0486C19.758 7.02734 23.7482 11.7033 21.356 16.1119C20.1555 18.3243 17.2106 20.6821 14.8361 19.8469C14.6537 19.7827 14.4751 19.7185 14.3002 19.6543C11.2313 18.5271 10.4587 14.7778 12.8296 12.5267C13.7562 11.647 14.7326 10.8194 15.7541 10.0486ZM4.90543 24.0226C6.1085 21.1356 8.43198 19.7239 11.2969 20.9788C14.2769 22.284 17.4375 25.9502 16.9019 29.1591C16.8699 29.3509 16.839 29.5438 16.8093 29.7377C16.298 33.0698 13.5932 35.7738 10.2221 35.7738H6.96774C4.44424 35.7738 2.39366 33.672 2.82315 31.1853C3.25343 28.694 3.95819 26.2958 4.90543 24.0226ZM4.69919 38.0963C5.95208 38.0963 6.96774 39.112 6.96774 40.3649V40.4955C6.96774 41.736 5.96219 42.7415 4.72177 42.7415C3.63021 42.7415 2.6885 41.9574 2.56148 40.8732C2.5445 40.7283 2.52845 40.5831 2.51333 40.4379C2.38053 39.1614 3.41587 38.0963 4.69919 38.0963ZM5.80645 49.7093H4.64516C3.36244 49.7093 2.32258 48.6694 2.32258 47.3867V46.2254C2.32258 45.584 2.84251 45.0641 3.48387 45.0641C4.12523 45.0641 4.64516 45.584 4.64516 46.2254C4.64516 46.8667 5.16509 47.3867 5.80645 47.3867C6.44781 47.3867 6.96774 46.8667 6.96774 46.2254C6.96774 45.584 7.48767 45.0641 8.12903 45.0641C8.7704 45.0641 9.29032 45.584 9.29032 46.2254C9.29032 46.8667 9.81025 47.3867 10.4516 47.3867C11.093 47.3867 11.6129 46.8667 11.6129 46.2254C11.6129 45.584 12.1328 45.0641 12.7742 45.0641C13.4156 45.0641 13.9355 45.584 13.9355 46.2254C13.9355 46.8667 14.4554 47.3867 15.0968 47.3867C15.7381 47.3867 16.2581 46.8667 16.2581 46.2254C16.2581 45.584 16.778 45.0641 17.4194 45.0641C18.0607 45.0641 18.5806 45.584 18.5806 46.2254C18.5806 46.8667 19.1006 47.3867 19.7419 47.3867C20.3833 47.3867 20.9032 46.8667 20.9032 46.2254C20.9032 45.584 21.4232 45.0641 22.0645 45.0641C22.7059 45.0641 23.2258 45.584 23.2258 46.2254C23.2258 46.8667 23.7457 47.3867 24.3871 47.3867C25.0285 47.3867 25.5484 46.8667 25.5484 46.2254C25.5484 45.584 26.0683 45.0641 26.7097 45.0641C27.351 45.0641 27.871 45.584 27.871 46.2254C27.871 46.8667 28.3909 47.3867 29.0323 47.3867C29.6736 47.3867 30.1935 46.8667 30.1935 46.2254C30.1935 45.584 30.7135 45.0641 31.3548 45.0641C31.9962 45.0641 32.5161 45.584 32.5161 46.2254V47.3867C32.5161 48.6694 31.4763 49.7093 30.1935 49.7093H5.80645ZM34.8387 68.2899C34.8387 69.5726 33.7989 70.6125 32.5161 70.6125H6.96774C5.68502 70.6125 4.64516 69.5726 4.64516 68.2899V67.1286C4.64516 66.4872 5.16509 65.9673 5.80645 65.9673C6.44781 65.9673 6.96774 66.4872 6.96774 67.1286C6.96774 67.77 7.48767 68.2899 8.12903 68.2899C8.7704 68.2899 9.29032 67.77 9.29032 67.1286C9.29032 66.4872 9.81025 65.9673 10.4516 65.9673C11.093 65.9673 11.6129 66.4872 11.6129 67.1286C11.6129 67.77 12.1328 68.2899 12.7742 68.2899C13.4156 68.2899 13.9355 67.77 13.9355 67.1286C13.9355 66.4872 14.4554 65.9673 15.0968 65.9673C15.7381 65.9673 16.2581 66.4872 16.2581 67.1286C16.2581 67.77 16.778 68.2899 17.4194 68.2899C18.0607 68.2899 18.5806 67.77 18.5806 67.1286C18.5806 66.4872 19.1006 65.9673 19.7419 65.9673C20.3833 65.9673 20.9032 66.4872 20.9032 67.1286C20.9032 67.77 21.4232 68.2899 22.0645 68.2899C22.7059 68.2899 23.2258 67.77 23.2258 67.1286C23.2258 66.4872 23.7457 65.9673 24.3871 65.9673C25.0285 65.9673 25.5484 66.4872 25.5484 67.1286C25.5484 67.77 26.0683 68.2899 26.7097 68.2899C27.351 68.2899 27.871 67.77 27.871 67.1286C27.871 66.4872 28.3909 65.9673 29.0323 65.9673C29.6736 65.9673 30.1935 66.4872 30.1935 67.1286C30.1935 67.77 30.7135 68.2899 31.3548 68.2899C31.9962 68.2899 32.5161 67.77 32.5161 67.1286C32.5161 66.4872 33.0361 65.9673 33.6774 65.9673C34.3188 65.9673 34.8387 66.4872 34.8387 67.1286V68.2899ZM39.4839 61.3222C39.4839 62.6049 38.444 63.6447 37.1613 63.6447H36H11.6129C10.3302 63.6447 9.29032 62.6049 9.29032 61.3222V60.1609C9.29032 59.5195 9.81025 58.9996 10.4516 58.9996C11.093 58.9996 11.6129 59.5195 11.6129 60.1609C11.6129 60.8022 12.1328 61.3222 12.7742 61.3222C13.4156 61.3222 13.9355 60.8022 13.9355 60.1609C13.9355 59.5195 14.4554 58.9996 15.0968 58.9996C15.7381 58.9996 16.2581 59.5195 16.2581 60.1609C16.2581 60.8022 16.778 61.3222 17.4194 61.3222C18.0607 61.3222 18.5806 60.8022 18.5806 60.1609C18.5806 59.5195 19.1006 58.9996 19.7419 58.9996C20.3833 58.9996 20.9032 59.5195 20.9032 60.1609C20.9032 60.8022 21.4232 61.3222 22.0645 61.3222C22.7059 61.3222 23.2258 60.8022 23.2258 60.1609C23.2258 59.5195 23.7457 58.9996 24.3871 58.9996C25.0285 58.9996 25.5484 59.5195 25.5484 60.1609C25.5484 60.8022 26.0683 61.3222 26.7097 61.3222C27.351 61.3222 27.871 60.8022 27.871 60.1609C27.871 59.5195 28.3909 58.9996 29.0323 58.9996C29.6736 58.9996 30.1935 59.5195 30.1935 60.1609C30.1935 60.8022 30.7135 61.3222 31.3548 61.3222C31.9962 61.3222 32.5161 60.8022 32.5161 60.1609C32.5161 59.5195 33.0361 58.9996 33.6774 58.9996C34.3188 58.9996 34.8387 59.5195 34.8387 60.1609C34.8387 60.8022 35.3586 61.3222 36 61.3222C36.6414 61.3222 37.1613 60.8022 37.1613 60.1609C37.1613 59.5195 37.6812 58.9996 38.3226 58.9996C38.9639 58.9996 39.4839 59.5195 39.4839 60.1609V61.3222ZM39.4839 56.677V52.0318C39.4839 50.7491 38.444 49.7093 37.1613 49.7093C35.8786 49.7093 34.8387 48.6694 34.8387 47.3867C34.8387 46.1039 35.8786 45.0641 37.1613 45.0641H38.3226C40.2467 45.0641 41.8064 43.5043 41.8064 41.5802C41.8064 39.6561 43.3662 38.0963 45.2903 38.0963H51.9582C52.7434 38.0963 53.3765 38.7441 53.3327 39.528C53.2966 40.1744 52.8039 40.6927 52.1724 40.8348C44.9219 42.4665 39.4839 48.94 39.4839 56.677ZM55.7419 70.6125C48.0577 70.6125 41.8064 64.3613 41.8064 56.677C41.8064 48.9927 48.0577 42.7415 55.7419 42.7415C63.4262 42.7415 69.6774 48.9927 69.6774 56.677C69.6774 64.3613 63.4262 70.6125 55.7419 70.6125Z" fill="#11AD8E"/>
</svg>
