<svg width="76" height="67" viewBox="0 0 76 67" fill="none" xmlns="http://www.w3.org/2000/svg">
<path d="M73.4375 64.225H2.5625C2.25184 64.225 2 64.4769 2 64.7875C2 65.0982 2.25184 65.35 2.5625 65.35H73.4375C73.7482 65.35 74 65.0982 74 64.7875C74 64.4769 73.7482 64.225 73.4375 64.225Z" stroke="#11AD8E" stroke-width="2.3"/>
<path d="M19.4873 51.2542C18.539 51.4435 17.8467 52.2697 17.8467 53.2367V58.1097C17.8467 59.2142 18.7422 60.1097 19.8467 60.1097H26.9034C28.008 60.1097 28.9034 59.2142 28.9034 58.1097V51.5793C28.9034 50.2367 27.6067 49.2755 26.3123 49.632C24.074 50.2484 21.7986 50.7926 19.4873 51.2542Z" stroke="#11AD8E" stroke-width="2.3"/>
<path d="M5.15549 53.0165C4.07789 53.0721 3.22174 53.9545 3.22174 55.0335V58.1095C3.22174 59.2141 4.11717 60.1095 5.22174 60.1095H12.2784C13.383 60.1095 14.2784 59.2141 14.2784 58.1095V54.4385C14.2784 53.221 13.1998 52.2874 11.9909 52.4323C9.73835 52.7022 7.45899 52.8976 5.15549 53.0165Z" stroke="#11AD8E" stroke-width="2.3"/>
<path d="M33.7774 47.2516C32.9769 47.5427 32.4366 48.2991 32.4366 49.1509V58.1096C32.4366 59.2142 33.332 60.1096 34.4366 60.1096H41.5635C42.6681 60.1096 43.5635 59.2142 43.5635 58.1096V46.2863C43.5635 44.8011 41.9996 43.83 40.6478 44.4452C38.412 45.4629 36.1204 46.3995 33.7774 47.2516Z" stroke="#11AD8E" stroke-width="2.3"/>
<path d="M48.0718 40.651C47.4399 41.0114 47.044 41.6799 47.044 42.4074V58.1097C47.044 59.2142 47.9394 60.1097 49.044 60.1097H56.2061C57.3107 60.1097 58.2061 59.2142 58.2061 58.1097V37.9811C58.2061 36.3223 56.2922 35.3709 54.9313 36.3193C52.7279 37.8549 50.4391 39.3006 48.0718 40.651Z" stroke="#11AD8E" stroke-width="2.3"/>
<path d="M62.357 30.5251C61.9169 30.9099 61.6602 31.4642 61.6602 32.0489V58.1096C61.6602 59.2142 62.5556 60.1096 63.6602 60.1096H70.8398C71.9444 60.1096 72.8398 59.2142 72.8398 58.1096V25.293C72.8398 23.392 70.3783 22.5168 69.0991 23.923C66.996 26.2349 64.7439 28.4388 62.357 30.5251Z" stroke="#11AD8E" stroke-width="2.3"/>
<path d="M63.2487 4.27373C61.8848 4.69729 61.5303 6.46249 62.6251 7.37974V7.37974C63.3771 8.00984 63.4901 9.12522 62.8627 9.87957C50.4874 24.7603 28.1693 42.814 3.43258 46.152C2.61841 46.2618 2 46.9498 2 47.7714V47.7714C2 48.6843 2.75588 49.4173 3.66702 49.3601C28.4099 47.8076 54.5659 31.2983 68.9224 14.8203C69.5254 14.1282 70.5699 14.0367 71.2737 14.6261V14.6261C72.3544 15.5311 74 14.7627 74 13.3532V3.65035C74 2.30257 72.694 1.34062 71.4069 1.74032L63.2487 4.27373Z" stroke="#11AD8E" stroke-width="2.3"/>
</svg>
