<svg width="72" height="69" viewBox="0 0 72 69" fill="none" xmlns="http://www.w3.org/2000/svg">
<path d="M4.38318 32.9927V31.7427H3.13318H1.25V30.3214H35.3976V31.7427H29.0421H27.7921V32.9927V67.3958H4.38318V32.9927Z" stroke="#11AD8E" stroke-width="2.5"/>
<path d="M55.6605 45.6261C53.1235 45.4866 50.229 45.4406 47.8232 45.6995C46.6241 45.8286 45.4833 46.0396 44.5489 46.3841C43.6641 46.7103 42.7038 47.2514 42.2527 48.2172C41.0544 50.6989 38.5402 58.2226 36.7333 65.4011L36.7331 65.4016C36.429 66.6121 35.3373 67.4256 34.1383 67.4256C33.9259 67.4256 33.7057 67.3988 33.4835 67.343C32.0482 66.9807 31.1784 65.5251 31.5388 64.0936L31.5389 64.0934C32.0482 62.0691 33.177 57.7545 34.4456 53.5422C35.0802 51.4352 35.7458 49.3669 36.3831 47.629C37.0323 45.8585 37.6151 44.5365 38.0678 43.8467C38.6528 42.9608 39.7768 42.1497 41.6591 41.5322C43.534 40.9172 46.043 40.5344 49.2155 40.4198L50.2936 40.3808L50.4128 39.3087L51.6482 28.1969L51.6512 28.1706L51.653 28.1442L51.6698 27.8982L51.7871 26.1843L50.1202 26.6C48.1111 27.1011 45.9635 27.3675 43.5543 27.3675C40.8935 27.3675 37.9891 27.0615 34.8445 26.4345L34.8437 26.4343C33.5928 26.1857 32.781 24.971 33.0293 23.7215L33.0293 23.7215C33.2782 22.4688 34.4953 21.6559 35.7403 21.9064L35.7434 21.907C43.5158 23.4505 49.711 22.951 53.8533 20.0008L53.854 20.0003L53.8545 19.9999L53.855 19.9996L53.8551 19.9995L53.8554 19.9993L53.8558 19.999L53.8653 19.9923C53.8758 19.985 53.8934 19.9729 53.9176 19.9566C53.966 19.9239 54.0405 19.8746 54.1375 19.8135C54.3322 19.691 54.6133 19.5238 54.951 19.35C55.6458 18.9926 56.4957 18.652 57.2909 18.5592L57.3313 18.5545L57.3677 18.5478L57.3688 18.5476L57.3689 18.5476L57.3699 18.5474L57.3846 18.545C57.4008 18.5424 57.4282 18.5382 57.4651 18.5331C57.5393 18.5229 57.6498 18.5097 57.7843 18.4994C58.0601 18.4783 58.4017 18.4723 58.7243 18.5152C59.0725 18.5628 59.457 18.652 59.7696 18.7351C59.9227 18.7758 60.0515 18.8132 60.1409 18.84C60.1854 18.8534 60.2199 18.8641 60.2423 18.8711L60.2665 18.8788L60.2709 18.8802C62.5779 19.7344 64.5222 21.81 64.2523 24.235L64.2523 24.2352L62.3136 41.6686C62.3136 41.6688 62.3136 41.669 62.3136 41.6692C62.1372 43.247 61.5203 44.171 60.5739 44.7479C59.5565 45.368 57.99 45.69 55.7301 45.6314C55.7171 45.63 55.7028 45.6287 55.6873 45.6277C55.679 45.6271 55.67 45.6265 55.6605 45.6261Z" stroke="#11AD8E" stroke-width="2.5"/>
<path d="M64.6499 8.88439C64.6499 12.5843 61.6505 15.5837 57.9506 15.5837C54.2506 15.5837 51.2513 12.5843 51.2513 8.88439C51.2513 5.18445 54.2506 2.18506 57.9506 2.18506C61.6505 2.18506 64.6499 5.18445 64.6499 8.88439Z" stroke="#11AD8E" stroke-width="2.5"/>
<path d="M67.3498 39.2172L68.2663 26.4288H70.6726L69.6985 39.0564C69.3916 42.3108 68.8456 45.4644 67.6129 47.8042C67.0056 48.9569 66.2524 49.8707 65.315 50.5081C64.3861 51.1397 63.2108 51.5451 61.6787 51.5865L60.4625 51.6193V52.836V63.0866V64.3366H61.7125H63.9461C65.836 64.3366 67.5515 65.796 67.9892 67.7331H67.0577C66.6487 66.3993 65.4183 65.3831 63.9463 65.3831H54.6742C53.2023 65.3831 51.9728 66.3996 51.5639 67.7331H50.6335C51.0711 65.7958 52.7863 64.3366 54.6754 64.3366H56.9111H58.1611V63.0866V53.3579V52.1078L56.9111 52.1079L50.7538 52.1081V49.8049L50.9991 49.8054L53.6719 49.8114C55.6186 49.8158 57.5822 49.8201 57.6344 49.8201C61.537 49.8201 64.0421 48.3613 65.5203 46.1372C66.9271 44.0206 67.2812 41.3877 67.3498 39.2172Z" stroke="#11AD8E" stroke-width="2.5"/>
<path d="M15.1622 25.2205L15.4135 26.1414H16.3681H28.7637V26.5901H15.0691L10.4548 9.68133L10.8895 9.56272L15.1622 25.2205Z" stroke="#11AD8E" stroke-width="2.5"/>
</svg>
