<svg width="145" height="82" viewBox="0 0 145 82" fill="none" xmlns="http://www.w3.org/2000/svg">
<path d="M50.0533 78.5422C50.0533 80.4519 39.3058 82 26.0481 82C12.7904 82 2.04295 80.4519 2.04295 78.5422C2.04295 76.6325 12.7904 75.0844 26.0481 75.0844C39.3058 75.0844 50.0533 76.6325 50.0533 78.5422Z" fill="#C8CACB"/>
<path d="M11.7405 79.036C10.9359 77.4711 10.1006 75.918 9.32678 74.3413C5.61111 66.764 2.84125 58.8866 1.27514 50.6386C0.0468173 44.1791 -0.401523 37.6724 0.40917 31.1364C1.20758 24.6886 3.19133 18.635 7.18952 13.3049C11.8817 7.05129 18.3304 3.27438 25.9706 1.21532C31.0435 -0.14954 36.1472 -0.508403 41.2816 0.885874C49.6158 3.14496 55.4687 9.93986 56.1136 18.1584C56.6234 24.671 54.2711 30.2598 49.972 35.1663C45.7404 39.9962 40.3358 43.2848 34.3416 45.7263C30.5706 47.2618 26.9348 48.9914 23.8149 51.5976C19.2578 55.398 16.4572 60.228 15.0201 65.7757C14.0681 69.4349 13.368 73.153 12.5389 76.8357C12.373 77.5652 12.1458 78.283 11.9493 79.0066C11.8756 79.0183 11.808 79.0242 11.7405 79.036ZM11.9738 48.2795C12.2871 47.9501 12.459 47.7618 12.6433 47.5853C14.0497 46.2264 15.3886 44.7968 16.881 43.5319C20.6089 40.3669 24.951 38.1548 29.5204 36.3252C32.7939 35.0133 35.8893 33.4072 38.6346 31.2305C41.6931 28.8008 44.1006 25.9417 45.0034 22.1236C46.1273 17.376 43.726 12.8872 39.1812 11.2576C37.4431 10.634 35.619 10.3752 33.7766 10.5105C28.1201 10.9282 23.0594 12.8166 18.8402 16.4935C13.6382 21.0411 11.679 27.0065 11.0403 33.4955C10.6718 37.2253 10.899 40.9375 11.3842 44.6379C11.5439 45.7969 11.7589 46.95 11.9738 48.2795Z" fill="url(#paint0_linear_1_349)"/>
<path d="M53.2532 36.8187C53.3541 36.8187 53.5847 36.8187 53.9451 36.8187C54.3054 36.8044 54.7091 36.7972 55.1559 36.7972C55.6028 36.7972 56.0497 36.7972 56.4965 36.7972C56.9434 36.7829 57.311 36.7758 57.5993 36.7758C59.3579 36.7758 60.6553 37.1692 61.4913 37.956C62.3274 38.7284 62.7454 39.7942 62.7454 41.1532C62.7454 41.8112 62.6301 42.4192 62.3995 42.9771C62.1688 43.5207 61.8229 43.9928 61.3616 44.3933C60.9147 44.7939 60.3525 45.1086 59.675 45.3375C59.0119 45.5521 58.2335 45.6593 57.3398 45.6593H55.8262V51.3457H53.2532V36.8187ZM55.8262 43.7496H57.4912C58.3993 43.7496 59.048 43.5135 59.4372 43.0415C59.8264 42.5694 60.021 41.9686 60.021 41.239C60.021 40.91 59.9778 40.5881 59.8913 40.2734C59.8048 39.9587 59.6534 39.6797 59.4372 39.4365C59.2354 39.1791 58.9543 38.9788 58.5939 38.8357C58.248 38.6784 57.8083 38.5997 57.2749 38.5997C56.9578 38.5997 56.6767 38.5997 56.4317 38.5997C56.201 38.5997 55.9992 38.6068 55.8262 38.6212V43.7496Z" fill="#F2F5F8"/>
<path d="M72.4374 46.1743C72.4374 47.0326 72.4878 47.7551 72.5887 48.3416C72.7041 48.9138 72.8266 49.3787 72.9563 49.7363C73.1149 50.1655 73.2879 50.5017 73.4753 50.7449L71.5509 51.5173C71.3635 51.3314 71.1905 51.1096 71.0319 50.8522C70.9022 50.6233 70.7797 50.3515 70.6643 50.0368C70.549 49.7077 70.4769 49.3215 70.4481 48.878C70.2031 49.7363 69.8066 50.3872 69.2589 50.8307C68.7255 51.2599 67.9976 51.4744 67.075 51.4744C66.3975 51.4744 65.8065 51.3528 65.302 51.1096C64.8118 50.8522 64.401 50.4945 64.0695 50.0368C63.7379 49.5647 63.4929 48.9996 63.3343 48.3416C63.1757 47.6835 63.0965 46.954 63.0965 46.1529C63.0965 45.3375 63.219 44.5864 63.464 43.8998C63.7235 43.1988 64.0767 42.598 64.5235 42.0973C64.9848 41.5966 65.5326 41.2032 66.1669 40.9171C66.8011 40.631 67.5002 40.488 68.2642 40.488C68.6967 40.488 69.1436 40.5238 69.6048 40.5953C70.0805 40.6525 70.5202 40.7169 70.9238 40.7884C71.3274 40.8599 71.6662 40.9314 71.9401 41.003C72.2284 41.0602 72.3941 41.096 72.4374 41.1103V46.1743ZM67.4858 49.7578C67.8462 49.7578 68.1778 49.6362 68.4805 49.393C68.7832 49.1498 69.0426 48.8351 69.2589 48.4489C69.4895 48.0483 69.6625 47.5977 69.7778 47.097C69.9076 46.582 69.9724 46.0599 69.9724 45.5306V42.4407C69.8283 42.3977 69.612 42.3477 69.3237 42.2904C69.0354 42.2332 68.776 42.2046 68.5453 42.2046C67.9976 42.2046 67.5435 42.2976 67.1831 42.4836C66.8372 42.6695 66.5561 42.927 66.3398 43.2561C66.1236 43.5851 65.9723 43.9785 65.8858 44.4362C65.7993 44.894 65.756 45.3947 65.756 45.9383C65.756 46.439 65.7704 46.9182 65.7993 47.376C65.8281 47.8337 65.9002 48.2414 66.0155 48.5991C66.1452 48.9567 66.3254 49.2428 66.5561 49.4574C66.7867 49.6577 67.0966 49.7578 67.4858 49.7578Z" fill="#F2F5F8"/>
<path d="M81.6183 51.3457V44.4148C81.6183 43.814 81.5102 43.3347 81.294 42.9771C81.0778 42.6052 80.7102 42.4192 80.1913 42.4192C79.8597 42.4192 79.5354 42.505 79.2182 42.6767C78.9155 42.8341 78.6416 43.0701 78.3966 43.3848C78.1515 43.6995 77.9497 44.0858 77.7912 44.5435C77.647 44.987 77.5749 45.4877 77.5749 46.0456V51.3457H75.11V45.9383C75.11 45.08 75.0523 44.3647 74.937 43.7925C74.8217 43.206 74.6991 42.7339 74.5694 42.3763C74.4108 41.9614 74.2379 41.6253 74.0505 41.3678L75.9965 40.5953C76.1406 40.7526 76.2848 40.9458 76.4289 41.1746C76.5443 41.3749 76.6596 41.6253 76.7749 41.9257C76.8902 42.2118 76.9839 42.5408 77.056 42.9127C77.4308 42.0544 77.9713 41.4393 78.6777 41.0673C79.384 40.6811 80.1264 40.488 80.9048 40.488C82.0148 40.488 82.8148 40.8242 83.3049 41.4965C83.8094 42.1545 84.0617 43.0486 84.0617 44.1787V51.3457H81.6183Z" fill="#F2F5F8"/>
<path d="M95.4747 46.1743C95.4747 47.0326 95.5251 47.7551 95.626 48.3416C95.7413 48.9138 95.8639 49.3787 95.9936 49.7363C96.1522 50.1655 96.3251 50.5017 96.5125 50.7449L94.5881 51.5173C94.4007 51.3314 94.2277 51.1096 94.0692 50.8522C93.9394 50.6233 93.8169 50.3515 93.7016 50.0368C93.5863 49.7077 93.5142 49.3215 93.4854 48.878C93.2403 49.7363 92.8439 50.3872 92.2961 50.8307C91.7628 51.2599 91.0348 51.4744 90.1123 51.4744C89.4348 51.4744 88.8437 51.3528 88.3392 51.1096C87.8491 50.8522 87.4383 50.4945 87.1067 50.0368C86.7752 49.5647 86.5301 48.9996 86.3716 48.3416C86.213 47.6835 86.1337 46.954 86.1337 46.1529C86.1337 45.3375 86.2563 44.5864 86.5013 43.8998C86.7608 43.1988 87.1139 42.598 87.5608 42.0973C88.0221 41.5966 88.5699 41.2032 89.2041 40.9171C89.8384 40.631 90.5375 40.488 91.3015 40.488C91.734 40.488 92.1808 40.5238 92.6421 40.5953C93.1178 40.6525 93.5575 40.7169 93.9611 40.7884C94.3647 40.8599 94.7034 40.9314 94.9773 41.003C95.2656 41.0602 95.4314 41.096 95.4747 41.1103V46.1743ZM90.5231 49.7578C90.8835 49.7578 91.215 49.6362 91.5177 49.393C91.8204 49.1498 92.0799 48.8351 92.2961 48.4489C92.5268 48.0483 92.6998 47.5977 92.8151 47.097C92.9448 46.582 93.0097 46.0599 93.0097 45.5306V42.4407C92.8655 42.3977 92.6493 42.3477 92.361 42.2904C92.0727 42.2332 91.8132 42.2046 91.5826 42.2046C91.0348 42.2046 90.5808 42.2976 90.2204 42.4836C89.8744 42.6695 89.5933 42.927 89.3771 43.2561C89.1609 43.5851 89.0095 43.9785 88.923 44.4362C88.8365 44.894 88.7933 45.3947 88.7933 45.9383C88.7933 46.439 88.8077 46.9182 88.8365 47.376C88.8654 47.8337 88.9374 48.2414 89.0528 48.5991C89.1825 48.9567 89.3627 49.2428 89.5933 49.4574C89.824 49.6577 90.1339 49.7578 90.5231 49.7578Z" fill="#F2F5F8"/>
<path d="M107.11 40.6597L107.154 40.8313C107.168 40.9601 107.19 41.1317 107.219 41.3463C107.247 41.5466 107.269 41.7826 107.283 42.0544C107.312 42.3119 107.327 42.5766 107.327 42.8484C107.327 44.4362 107.204 45.7809 106.959 46.8824C106.728 47.9696 106.368 48.8566 105.878 49.5432C105.402 50.2156 104.79 50.7019 104.04 51.0024C103.305 51.3028 102.433 51.453 101.424 51.453C100.285 51.453 99.4705 51.1311 98.9804 50.4874C98.5047 49.8293 98.2668 48.9281 98.2668 47.7837V40.6597H100.732V47.7193C100.732 48.3201 100.84 48.8065 101.056 49.1784C101.272 49.5504 101.64 49.7363 102.159 49.7363C102.678 49.7363 103.11 49.5432 103.456 49.157C103.802 48.7707 104.076 48.2701 104.278 47.6549C104.48 47.0255 104.624 46.3174 104.71 45.5306C104.797 44.7295 104.84 43.9213 104.84 43.1059C104.84 42.8054 104.826 42.5122 104.797 42.2261C104.782 41.9257 104.754 41.661 104.71 41.4321C104.682 41.2033 104.66 41.0173 104.645 40.8742L104.602 40.6597H107.11Z" fill="#F2F5F8"/>
<path d="M109.065 46.2602C109.065 45.3017 109.195 44.4577 109.455 43.7281C109.728 42.9986 110.096 42.3906 110.557 41.9042C111.033 41.4035 111.588 41.0316 112.222 40.7884C112.857 40.5309 113.541 40.4022 114.276 40.4022C114.925 40.4022 115.473 40.4808 115.92 40.6382C116.381 40.7956 116.756 41.0101 117.044 41.2819C117.332 41.5537 117.541 41.8756 117.671 42.2475C117.815 42.6195 117.887 43.02 117.887 43.4492C117.887 43.9642 117.743 44.4577 117.455 44.9298C117.167 45.3875 116.749 45.7952 116.201 46.1529C115.667 46.4962 115.019 46.7752 114.255 46.9897C113.491 47.19 112.633 47.2973 111.682 47.3116C111.725 47.6406 111.79 47.9553 111.876 48.2557C111.977 48.5419 112.114 48.7993 112.287 49.0282C112.475 49.2428 112.712 49.4145 113.001 49.5432C113.289 49.672 113.649 49.7363 114.082 49.7363C114.399 49.7363 114.738 49.7006 115.098 49.6291C115.458 49.5575 115.79 49.4717 116.093 49.3716C116.453 49.2571 116.806 49.1284 117.152 48.9853L117.801 50.5088C117.426 50.6948 117.022 50.8593 116.59 51.0024C116.215 51.1311 115.783 51.2455 115.293 51.3457C114.803 51.4458 114.284 51.4959 113.736 51.4959C112.9 51.4959 112.186 51.3743 111.595 51.1311C111.004 50.8736 110.521 50.516 110.147 50.0582C109.772 49.6004 109.498 49.0497 109.325 48.406C109.152 47.7622 109.065 47.047 109.065 46.2602ZM114.082 42.0759C113.606 42.0759 113.21 42.1903 112.893 42.4192C112.59 42.6338 112.345 42.9199 112.157 43.2775C111.97 43.6208 111.833 44.0142 111.747 44.4577C111.675 44.8869 111.631 45.3232 111.617 45.7666C112.309 45.738 112.893 45.6522 113.368 45.5091C113.858 45.3518 114.255 45.1658 114.558 44.9512C114.86 44.7223 115.076 44.4792 115.206 44.2217C115.35 43.9642 115.422 43.7067 115.422 43.4492C115.422 43.0343 115.3 42.7053 115.055 42.4621C114.81 42.2046 114.485 42.0759 114.082 42.0759Z" fill="#F2F5F8"/>
<path d="M124.756 42.8913C124.496 42.8913 124.237 42.9556 123.978 43.0844C123.718 43.2131 123.487 43.392 123.286 43.6208C123.084 43.8354 122.918 44.1001 122.788 44.4148C122.659 44.7295 122.594 45.08 122.594 45.4662V51.3457H120.129V45.9383C120.129 45.08 120.071 44.3647 119.956 43.7925C119.84 43.206 119.718 42.7339 119.588 42.3763C119.43 41.9614 119.257 41.6253 119.069 41.3678L121.015 40.5953C121.145 40.7526 121.282 40.9458 121.426 41.1746C121.541 41.3749 121.657 41.611 121.772 41.8828C121.887 42.1546 121.981 42.4764 122.053 42.8484C122.341 42.0186 122.759 41.425 123.307 41.0673C123.855 40.6954 124.475 40.5094 125.167 40.5094C125.498 40.5094 125.808 40.5524 126.097 40.6382C126.385 40.7097 126.522 40.7455 126.507 40.7455L125.815 43.1273C125.83 43.1273 125.743 43.0915 125.556 43.02C125.383 42.9342 125.116 42.8913 124.756 42.8913Z" fill="#F2F5F8"/>
<path d="M131.094 40.4022C131.512 40.4022 131.923 40.4451 132.327 40.5309C132.73 40.6167 133.091 40.7169 133.408 40.8313C133.783 40.9601 134.129 41.096 134.446 41.239L133.711 42.9127C133.422 42.784 133.134 42.6695 132.846 42.5694C132.601 42.4836 132.327 42.4049 132.024 42.3334C131.736 42.2475 131.448 42.2046 131.159 42.2046C130.828 42.2046 130.539 42.2833 130.294 42.4407C130.064 42.598 129.948 42.8341 129.948 43.1488C129.948 43.9642 130.547 44.6008 131.743 45.0585C132.19 45.2302 132.594 45.4161 132.954 45.6164C133.314 45.8024 133.617 46.0241 133.862 46.2816C134.122 46.5391 134.316 46.8395 134.446 47.1829C134.576 47.5119 134.64 47.9053 134.64 48.363C134.64 48.7636 134.554 49.157 134.381 49.5432C134.222 49.9295 133.977 50.2728 133.646 50.5732C133.329 50.8736 132.932 51.1168 132.457 51.3028C131.995 51.4744 131.469 51.5603 130.878 51.5603C130.402 51.5603 129.934 51.503 129.473 51.3886C129.011 51.2885 128.593 51.174 128.219 51.0453C127.858 50.9165 127.57 50.7949 127.354 50.6805L127.029 50.5303L127.829 48.7278L128.11 48.878C128.298 48.9925 128.536 49.1141 128.824 49.2428C129.112 49.3716 129.422 49.4932 129.754 49.6076C130.085 49.7077 130.388 49.7578 130.662 49.7578C131.166 49.7578 131.541 49.6577 131.786 49.4574C132.031 49.2571 132.154 48.9925 132.154 48.6634C132.154 48.2915 132.017 47.9553 131.743 47.6549C131.484 47.3402 131.087 47.0827 130.554 46.8824C129.444 46.4676 128.644 45.9955 128.154 45.4662C127.678 44.9369 127.44 44.2503 127.44 43.4063C127.44 43.0057 127.534 42.6266 127.721 42.269C127.909 41.8971 128.161 41.5752 128.478 41.3034C128.81 41.0173 129.199 40.7956 129.646 40.6382C130.093 40.4808 130.575 40.4022 131.094 40.4022Z" fill="#F2F5F8"/>
<path d="M136.178 46.2602C136.178 45.3017 136.308 44.4577 136.567 43.7281C136.841 42.9986 137.209 42.3906 137.67 41.9042C138.146 41.4035 138.701 41.0316 139.335 40.7884C139.969 40.5309 140.654 40.4022 141.389 40.4022C142.038 40.4022 142.585 40.4808 143.032 40.6382C143.494 40.7956 143.868 41.0101 144.157 41.2819C144.445 41.5537 144.654 41.8756 144.784 42.2475C144.928 42.6195 145 43.02 145 43.4492C145 43.9642 144.856 44.4577 144.568 44.9298C144.279 45.3875 143.861 45.7952 143.313 46.1529C142.78 46.4962 142.131 46.7752 141.367 46.9897C140.603 47.19 139.746 47.2973 138.794 47.3116C138.838 47.6406 138.902 47.9553 138.989 48.2557C139.09 48.5419 139.227 48.7993 139.4 49.0282C139.587 49.2428 139.825 49.4145 140.113 49.5432C140.402 49.672 140.762 49.7363 141.194 49.7363C141.512 49.7363 141.85 49.7006 142.211 49.6291C142.571 49.5575 142.903 49.4717 143.205 49.3716C143.566 49.2571 143.919 49.1284 144.265 48.9853L144.914 50.5088C144.539 50.6948 144.135 50.8593 143.703 51.0024C143.328 51.1311 142.895 51.2455 142.405 51.3457C141.915 51.4458 141.396 51.4959 140.848 51.4959C140.012 51.4959 139.299 51.3743 138.708 51.1311C138.117 50.8736 137.634 50.516 137.259 50.0582C136.884 49.6004 136.61 49.0497 136.437 48.406C136.264 47.7622 136.178 47.047 136.178 46.2602ZM141.194 42.0759C140.719 42.0759 140.322 42.1903 140.005 42.4192C139.702 42.6338 139.457 42.9199 139.27 43.2775C139.083 43.6208 138.946 44.0142 138.859 44.4577C138.787 44.8869 138.744 45.3232 138.729 45.7666C139.421 45.738 140.005 45.6522 140.481 45.5091C140.971 45.3518 141.367 45.1658 141.67 44.9512C141.973 44.7223 142.189 44.4792 142.319 44.2217C142.463 43.9642 142.535 43.7067 142.535 43.4492C142.535 43.0343 142.413 42.7053 142.167 42.4621C141.922 42.2046 141.598 42.0759 141.194 42.0759Z" fill="#F2F5F8"/>
<path d="M53.0369 58.8192C53.1234 58.8192 53.3088 58.8192 53.5929 58.8192C53.8771 58.8069 54.1984 58.8008 54.5567 58.8008C54.915 58.8008 55.2857 58.8008 55.6687 58.8008C56.0517 58.7885 56.3853 58.7824 56.6695 58.7824C58.77 58.7824 60.3268 59.3035 61.34 60.3457C62.3531 61.3757 62.8597 62.9146 62.8597 64.9623C62.8597 67.0099 62.3408 68.5794 61.3029 69.6707C60.265 70.762 58.6402 71.3077 56.4286 71.3077C56.0455 71.3077 55.6687 71.3015 55.298 71.2893C54.9397 71.2893 54.6061 71.2893 54.2972 71.2893C54.0007 71.2893 53.7412 71.2831 53.5188 71.2709C53.2964 71.2709 53.1358 71.2709 53.0369 71.2709V58.8192ZM56.41 60.4193C56.1259 60.4193 55.8849 60.4254 55.6872 60.4377C55.5019 60.4377 55.3536 60.4377 55.2424 60.4377V69.6523C55.3783 69.6646 55.5513 69.6707 55.7614 69.6707C55.9838 69.6707 56.2988 69.6707 56.7066 69.6707C58.0039 69.6707 58.9553 69.2967 59.5607 68.5488C60.1662 67.7886 60.4689 66.6605 60.4689 65.1646C60.4689 64.4534 60.3948 63.8097 60.2465 63.2334C60.1106 62.6448 59.8758 62.1421 59.5422 61.7252C59.221 61.3083 58.8009 60.9895 58.2819 60.7688C57.7753 60.5358 57.1514 60.4193 56.41 60.4193Z" fill="#F2F5F8"/>
<path d="M67.6328 58.8192H69.375L74.2123 71.2709H71.8585L70.7094 68.0154H66.1872L65.0011 71.2709H62.8141L67.6328 58.8192ZM70.1349 66.3969C69.7395 65.2933 69.3997 64.294 69.1155 63.3989C68.8313 62.4915 68.6151 61.7804 68.4669 61.2654C68.2939 61.8171 68.0653 62.5406 67.7811 63.4357C67.4969 64.3308 67.1633 65.3178 66.7803 66.3969H70.1349Z" fill="#F2F5F8"/>
<path d="M79.9777 58.6536C80.9043 58.6536 81.6951 58.8008 82.35 59.095C83.0048 59.3893 83.5423 59.8062 83.9624 60.3457C84.3948 60.8852 84.7099 61.5474 84.9076 62.3321C85.1053 63.1046 85.2041 63.9752 85.2041 64.9439C85.2041 65.9003 85.0929 66.777 84.8705 67.574C84.6605 68.3587 84.3269 69.0331 83.8697 69.5972C83.4249 70.1612 82.8565 70.6026 82.1646 70.9214C81.4851 71.228 80.6758 71.3812 79.7367 71.3812C78.81 71.3812 78.0131 71.2463 77.3459 70.9766C76.691 70.6946 76.1474 70.2899 75.7149 69.7627C75.2948 69.2232 74.9859 68.5733 74.7883 67.8131C74.5906 67.0529 74.4917 66.1823 74.4917 65.2014C74.4917 64.2449 74.5967 63.3682 74.8068 62.5712C75.0292 61.762 75.3628 61.0692 75.8076 60.4929C76.2648 59.9043 76.8393 59.4506 77.5312 59.1318C78.2231 58.813 79.0386 58.6536 79.9777 58.6536ZM79.7182 60.3457C79.1745 60.3457 78.7236 60.4684 78.3652 60.7136C78.0069 60.9466 77.7166 61.2715 77.4942 61.6884C77.2718 62.1053 77.1111 62.5958 77.0123 63.1598C76.9258 63.7238 76.8825 64.3369 76.8825 64.999C76.8825 65.6244 76.9258 66.2191 77.0123 66.7831C77.0988 67.3471 77.2532 67.8437 77.4756 68.2729C77.7104 68.7021 78.0255 69.0454 78.4208 69.3029C78.8286 69.5604 79.3537 69.6891 79.9962 69.6891C80.5275 69.6891 80.9723 69.5726 81.3306 69.3397C81.7013 69.1067 81.9978 68.7879 82.2202 68.3833C82.4426 67.9786 82.5971 67.5004 82.6836 66.9486C82.7824 66.3846 82.8318 65.7777 82.8318 65.1278C82.8318 64.5024 82.7886 63.9016 82.7021 63.3253C82.6156 62.749 82.455 62.2402 82.2202 61.7987C81.9978 61.3573 81.6827 61.0079 81.275 60.7504C80.8796 60.4806 80.3607 60.3457 79.7182 60.3457Z" fill="#F2F5F8"/>
<defs>
<linearGradient id="paint0_linear_1_349" x1="15.6229" y1="56.9262" x2="64.107" y2="-17.9613" gradientUnits="userSpaceOnUse">
<stop stop-color="#15CAC6"/>
<stop offset="1" stop-color="#0FB842"/>
</linearGradient>
</defs>
</svg>
